#!OML:ASF Y:\EmotionMaleHayes\Project 1\Capture day 1\Session 1\Male1.ASF
:FULLY-SPECIFIED
:DEGREES
516
root 41.6259 15.952 0.0328878 14.9912 54.6773 -371.076
lowerback 27.4552 -4.69293 -15.2857
upperback 9.49651 -9.43892 -3.88803
thorax -2.38488 -4.60334 6.76515
lowerneck -18.518 14.1998 1.98035
upperneck 0.257289 19.3551 -12.5056
head 4.41768 8.97429 -2.22443
rclavicle 1.27222e-014 -2.54444e-014
rhumerus -50.6822 -17.0838 -47.2516
rradius 31.9786
rwrist -25.1793
rhand -31.561 -31.695
rfingers 7.12502
rthumb -4.82484 -61.62
lclavicle 1.27222e-014 -2.54444e-014
lhumerus 62.2051 -4.02319 61.7101
lradius 57.9747
lwrist 11.8294
lhand -44.8327 -61.6126
lfingers 7.12502
lthumb -17.6227 -32.3912
rfemur -34.1523 11.0109 -4.23095
rtibia 74.4023
rfoot 171.679 6.43522
rtoes 20.3345
lfemur -27.4726 13.0598 -33.1273
ltibia 37.7819
lfoot 330.25 -2.92821
ltoes 10.4366
517
root 41.8705 15.9976 0.180735 15.6346 55.8054 -370.607
lowerback 27.5691 -5.13799 -15.3753
upperback 9.37956 -10.054 -4.02857
thorax -2.45277 -4.88018 6.80944
lowerneck -18.92 14.3464 1.86621
upperneck 0.549178 19.5796 -12.1777
head 4.53311 9.06792 -2.05603
rclavicle -3.18055e-015 5.40694e-014
rhumerus -53.3789 -18.7701 -40.3017
rradius 33.5493
rwrist -29.4591
rhand -32.435 -33.6848
rfingers 7.12502
rthumb -5.66872 -63.589
lclavicle -3.18055e-015 5.40694e-014
lhumerus 63.106 -7.48687 63.1658
lradius 59.496
lwrist 11.0169
lhand -44.3938 -61.7296
lfingers 7.12502
lthumb -17.2003 -32.4708
rfemur -37.9591 9.48791 -4.81349
rtibia 71.8505
rfoot 170.846 5.01778
rtoes 23.0578
lfemur -24.9485 11.3122 -32.9641
ltibia 34.9719
lfoot 330.15 -2.91888
ltoes 12.8174
518
root 42.1231 16.0519 0.326877 15.6582 56.9066 -370.807
lowerback 27.6782 -5.66694 -15.1015
upperback 9.24264 -10.695 -4.18468
thorax -2.61907 -5.15682 6.65945
lowerneck -18.9975 14.4742 1.80301
upperneck 0.688871 19.7363 -11.7207
head 4.53666 9.1584 -1.89238
rclavicle 7.95139e-014 4.45278e-014
rhumerus -55.6578 -20.2757 -33.4642
rradius 35.019
rwrist -32.9329
rhand -32.4577 -33.9216
rfingers 7.12502
rthumb -5.69066 -63.8252
lclavicle 7.95139e-014 4.45278e-014
lhumerus 63.2287 -11.1646 63.8602
lradius 60.8955
lwrist 10.221
lhand -44.0424 -61.5697
lfingers 7.12502
lthumb -16.8621 -32.2818
rfemur -41.8037 8.01931 -4.66541
rtibia 69.952
rfoot 170.532 3.71617
rtoes 20.2083
lfemur -22.2737 9.3994 -32.349
ltibia 31.954
lfoot 330.084 -2.56629
ltoes 13.0856
519
root 42.3808 16.1169 0.472739 16.0525 57.8158 -370.348
lowerback 27.9271 -6.08712 -15.3308
upperback 9.04376 -11.3618 -4.45961
thorax -2.84024 -5.4377 6.66923
lowerneck -18.3081 14.8548 2.72531
upperneck 0.541226 20.0928 -12.4946
head 4.58898 9.32054 -2.22393
rclavicle -4.77083e-014 -4.45278e-014
rhumerus -57.4847 -22.2883 -26.1148
rradius 36.3217
rwrist -34.9538
rhand -31.9953 -35.0827
rfingers 7.12502
rthumb -5.24422 -64.9978
lclavicle -4.77083e-014 -4.45278e-014
lhumerus 62.755 -14.9545 63.6932
lradius 62.2056
lwrist 10.05
lhand -43.7938 -61.5179
lfingers 7.12502
lthumb -16.6227 -32.2098
rfemur -45.5066 6.32893 -4.40915
rtibia 69.0557
rfoot 170.001 3.05967
rtoes 13.7834
lfemur -19.185 7.29727 -32.1792
ltibia 28.4964
lfoot 330.317 -1.71208
ltoes 11.6884
520
root 42.6423 16.1943 0.623543 16.6671 58.4908 -369.341
lowerback 28.4766 -6.40728 -16.2522
upperback 8.77507 -12.1402 -4.62804
thorax -3.07432 -5.77334 7.21168
lowerneck -17.8787 15.1796 2.65923
upperneck 0.558989 20.5298 -12.4565
head 4.54726 9.54592 -2.17641
rclavicle 1.59028e-014 -3.18055e-014
rhumerus -58.2561 -24.5438 -18.7538
rradius 37.3552
rwrist -36.1072
rhand -32.1315 -35.4359
rfingers 7.12502
rthumb -5.3757 -65.3477
lclavicle 1.59028e-014 -3.18055e-014
lhumerus 61.6519 -18.3779 63.4111
lradius 63.4347
lwrist 10.4604
lhand -43.3443 -60.9509
lfingers 7.12502
lthumb -16.1899 -31.607
rfemur -48.9322 4.89005 -4.15153
rtibia 68.8308
rfoot 169.905 2.81736
rtoes 12.0119
lfemur -15.676 5.29967 -32.3541
ltibia 24.6652
lfoot 331.134 -0.63298
ltoes 10.1711
521
root 42.9067 16.2825 0.784835 17.0102 59.1284 -368.449
lowerback 29.1016 -6.72054 -17.1515
upperback 8.60569 -12.9165 -4.92288
thorax -3.24949 -6.10413 7.60174
lowerneck -17.6234 15.5134 2.66121
upperneck 0.719639 20.9533 -12.0712
head 4.53763 9.77052 -2.0286
rclavicle -8.26944e-014 -1.59028e-014
rhumerus -58.7314 -27.6264 -11.5711
rradius 38.3617
rwrist -36.9159
rhand -32.4067 -35.0194
rfingers 7.12502
rthumb -5.64144 -64.9243
lclavicle -8.26944e-014 -1.59028e-014
lhumerus 60.1761 -21.9487 62.9039
lradius 64.5898
lwrist 11.0642
lhand -42.8886 -59.4237
lfingers 7.12502
lthumb -15.7511 -30.0447
rfemur -51.9214 3.58183 -3.34833
rtibia 69.4288
rfoot 169.039 2.43762
rtoes 8.13137
lfemur -12.0494 3.63374 -32.3878
ltibia 20.89
lfoot 332.403 -0.0346806
ltoes 9.28817
522
root 43.1738 16.3847 0.955941 16.0101 59.8869 -369.283
lowerback 29.5303 -7.17129 -17.2312
upperback 8.47845 -13.6178 -5.12382
thorax -3.47442 -6.3989 7.64615
lowerneck -17.2571 15.9358 2.7858
upperneck 0.834492 21.4588 -11.5693
head 4.49762 10.0505 -1.86498
rclavicle -1.27222e-014 -6.04305e-014
rhumerus -58.7676 -31.0183 -5.41201
rradius 39.4814
rwrist -37.333
rhand -32.5868 -34.0925
rfingers 7.12502
rthumb -5.81527 -63.9927
lclavicle -1.27222e-014 -6.04305e-014
lhumerus 58.3471 -25.6648 62.2485
lradius 65.5564
lwrist 11.9706
lhand -42.0802 -57.5817
lfingers 7.12502
lthumb -14.9724 -28.1429
rfemur -54.7779 2.66967 -1.17689
rtibia 70.7425
rfoot 168.15 2.66945
rtoes 11.1428
lfemur -8.8542 2.45028 -31.2843
ltibia 17.5167
lfoot 334.167 -0.0206059
ltoes 7.82797
523
root 43.4511 16.4914 1.13299 15.7711 60.43 -369.075
lowerback 30.2802 -7.38941 -18.0581
upperback 8.03707 -14.3406 -5.10008
thorax -3.5939 -6.7002 7.67793
lowerneck -17.0088 16.3832 3.76711
upperneck 1.24963 21.9515 -12.0697
head 4.78608 10.2434 -2.04955
rclavicle -3.49861e-014 -3.18055e-014
rhumerus -58.1346 -34.2032 -0.586221
rradius 40.571
rwrist -38.1564
rhand -33.1596 -33.3907
rfingers 7.12502
rthumb -6.36832 -63.275
lclavicle -3.49861e-014 -3.18055e-014
lhumerus 56.3822 -29.5046 61.6853
lradius 66.1166
lwrist 13.2007
lhand -40.5021 -55.4241
lfingers 7.12502
lthumb -13.4518 -25.8784
rfemur -57.1639 1.65568 0.73393
rtibia 73.0836
rfoot 167.371 4.07104
rtoes 5.16631
lfemur -5.65333 1.79505 -30.8094
ltibia 14.4646
lfoot 336.504 -0.432979
ltoes 5.26547
524
root 43.7485 16.6016 1.31078 15.8722 60.7537 -368.351
lowerback 30.6844 -7.5557 -18.9987
upperback 7.98892 -14.9157 -5.5481
thorax -3.56064 -6.9442 7.77682
lowerneck -17.3637 16.7571 4.02376
upperneck 1.94951 22.4092 -11.3973
head 5.02709 10.4518 -1.78054
rclavicle 0 2.8625e-014
rhumerus -56.574 -37.0274 2.61709
rradius 41.5399
rwrist -38.8528
rhand -34.5188 -33.4442
rfingers 7.12502
rthumb -7.68031 -63.2848
lclavicle 0 2.8625e-014
lhumerus 54.3308 -33.4463 61.4812
lradius 66.1741
lwrist 13.9883
lhand -38.7931 -52.9023
lfingers 7.12502
lthumb -11.8041 -23.255
rfemur -58.9012 0.869038 2.26897
rtibia 76.0876
rfoot 166.777 5.47092
rtoes 8.43734
lfemur -2.50596 1.7029 -30.634
ltibia 11.8388
lfoot 339.15 -1.1651
ltoes 2.85704
